:SAMPLES-PER-SECOND 30
:FRAME-RANGE 1-744
:FULLY-SPECIFIED
:DEGREES
140
root  -32.6938 37.8933 -105.752 1.92688 14.97 7.10475
RightUpLeg  -10.4317 4.66394 -10.7985
RightLeg  70.9962 4.31191 13.0111
RightFoot  2.35321 -1.36211 11.4427
RightToes  -5.28216e-011 1.2921e-014 -6.02303e-014
Spine  -4.41042 2.56945 -1.76923
Spine1  10.2373 3.14293 -5.52284
HEad  19.0227 52.1096 -2.58736
LeftShoulder1  0.244361 2.39241 -20.5948
LeftArm  -5.84465 10.9547 -54.2815
LeftForeArm  37.7841 7.54047 -11.7988
LeftHand  -0.0317963 5.08129 2.5165
RightShoulder  2.09711 3.14458 26.5328
RightArm  -28.3569 2.28009 55.0722
RightForeArm  67.7999 -5.10373 1.81059
RightHand  0.152227 -6.45234 -18.1189
LeftUpLeg  -20.8475 -13.3433 -9.53921
LeftLeg  25.5779 13.443 7.26942
LeftFoot  -4.31749 0.0319804 -0.0973973
LeftToes  -9.4837e-011 -7.11147e-011 -1.07582e-011
141
root  -32.2736 38.0905 -104.283 1.29158 15.6784 6.74028
RightUpLeg  -14.9215 3.8113 -10.7834
RightLeg  72.9384 2.74195 9.13456
RightFoot  -0.764861 -0.76562 8.20118
RightToes  -5.28216e-011 1.2921e-014 -6.02303e-014
Spine  -4.06471 2.16455 -1.69319
Spine1  9.26185 2.58593 -5.4148
HEad  20.3123 53.3713 -1.2373
LeftShoulder1  0.240869 2.40351 -20.5337
LeftArm  -5.31761 9.8148 -54.616
LeftForeArm  37.6705 5.06394 -11.8432
LeftHand  -0.0335725 4.97545 2.5246
RightShoulder  1.99754 2.81069 26.6773
RightArm  -29.9335 -0.127213 53.4826
RightForeArm  69.1299 -4.92732 1.06816
RightHand  0.231854 -6.99947 -17.787
LeftUpLeg  -17.4117 -12.6431 -10.1135
LeftLeg  25.4701 12.4189 6.8517
LeftFoot  -6.9023 0.0283356 0.340234
LeftToes  -9.4837e-011 -7.11147e-011 -1.07582e-011
142
root  -31.8804 38.2669 -102.823 0.710938 16.6315 6.3284
RightUpLeg  -18.8746 2.74996 -10.8093
RightLeg  71.6462 1.91902 5.63379
RightFoot  -3.27306 -0.53558 7.26727
RightToes  -5.28216e-011 1.2921e-014 -6.02303e-014
Spine  -3.59435 1.7114 -1.77142
Spine1  8.34122 1.98461 -5.06405
HEad  20.2485 54.6003 -0.978022
LeftShoulder1  0.257367 2.34045 -20.4926
LeftArm  -4.55393 8.42596 -54.8925
LeftForeArm  37.1327 2.06026 -11.9332
LeftHand  -0.0353969 4.93373 2.91056
RightShoulder  1.90306 2.5356 26.5864
RightArm  -31.2335 -2.5435 51.7876
RightForeArm  68.4627 -4.85585 0.497542
RightHand  0.262232 -7.19275 -17.845
LeftUpLeg  -13.8674 -11.6078 -10.5989
LeftLeg  24.8999 10.8725 6.36245
LeftFoot  -9.24335 0.0477697 0.424675
LeftToes  -9.4837e-011 -7.11147e-011 -1.07582e-011
143
root  -31.5137 38.3636 -101.374 0.414322 18.0482 5.94469
RightUpLeg  -22.164 1.56978 -10.9857
RightLeg  67.4226 1.57292 3.5017
RightFoot  -6.22771 -0.286249 5.4561
RightToes  -5.28216e-011 1.2921e-014 -6.02303e-014
Spine  -3.42718 1.1777 -2.06409
Spine1  7.6743 1.34454 -4.55144
HEad  18.7388 55.4013 -1.75826
LeftShoulder1  0.383758 1.85452 -20.2444
LeftArm  -3.90613 6.95878 -55.2171
LeftForeArm  36.0988 -1.11496 -11.9395
LeftHand  -0.0453749 4.54567 3.25943
RightShoulder  1.76572 2.06791 26.863
RightArm  -31.5002 -4.92868 49.5648
RightForeArm  66.7021 -4.92723 0.526892
RightHand  0.250417 -7.1626 -17.4177
LeftUpLeg  -10.8562 -9.83249 -10.7069
LeftLeg  24.5656 8.23845 5.34808
LeftFoot  -11.5721 0.0716594 1.07097
LeftToes  -9.4837e-011 -7.11147e-011 -1.07582e-011
144
root  -31.1529 38.4469 -99.9247 0.0783844 19.8381 5.31396
RightUpLeg  -24.1877 0.582425 -11.0598
RightLeg  59.9971 1.04341 1.48134
RightFoot  -8.39893 -0.186044 5.01687
RightToes  -5.28216e-011 1.2921e-014 -6.02303e-014
Spine  -3.37606 0.561578 -1.98025
Spine1  7.22497 0.684921 -4.00123
HEad  16.1752 55.8194 -3.48817
LeftShoulder1  0.463499 1.53412 -19.9391
LeftArm  -2.48745 5.15536 -55.5747
LeftForeArm  34.0763 -4.32341 -11.7674
LeftHand  -0.0546374 4.20541 3.41129
RightShoulder  1.63221 1.60256 27.2574
RightArm  -30.6634 -7.23858 47.119
RightForeArm  64.0998 -5.13073 1.16362
RightHand  0.221132 -7.14125 -15.8493
LeftUpLeg  -7.66693 -7.8231 -10.2192
LeftLeg  23.6862 5.06489 4.10015
LeftFoot  -13.762 0.123973 1.95615
LeftToes  -9.4837e-011 -7.11147e-011 -1.07582e-011
145
root  -30.794 38.5121 -98.5217 -0.0366058 21.7766 4.58623
RightUpLeg  -25.1761 -0.135001 -11.2743
RightLeg  49.6114 -0.176373 -0.55878
RightFoot  -8.98738 -0.154688 4.55388
RightToes  -5.28216e-011 1.2921e-014 -6.02303e-014
Spine  -3.30479 -0.00934585 -1.5471
Spine1  6.5253 0.126378 -3.38255
HEad  13.7123 55.6784 -5.49805
LeftShoulder1  0.554754 1.16833 -19.7143
LeftArm  -0.266578 3.22082 -55.802
LeftForeArm  31.1313 -7.27449 -11.3171
LeftHand  -0.0659584 3.94513 3.84055
RightShoulder  1.5314 1.28814 27.329
RightArm  -29.3785 -9.02975 44.7635
RightForeArm  60.9546 -5.36917 1.92061
RightHand  0.159396 -6.81244 -14.5695
LeftUpLeg  -4.75359 -6.47187 -9.34568
LeftLeg  22.6332 2.20756 3.06539
LeftFoot  -15.6839 0.187752 2.46771
LeftToes  -9.4837e-011 -7.11147e-011 -1.07582e-011
